<svg xmlns="http://www.w3.org/2000/svg" width="80" height="15" viewBox="0 0 80 15"><style>.white{fill:#fff}</style><path fill="#666" d="m0 0 0 15 80 0 0 -15z"/><path d="m 1 1 0 13 78 0 0 -13z" class="white"/><path fill="#F60" d="m 2 2 0 11 38 0 0 -11z"/><path fill="#898E79" d="m 41 2 0 11 37 0 0 -11z"/><path d="m 6 6 2 0 0 -1 -2 0 0 2 2 0 0 -1 1 0 0 4 -1 0 0 -2 -2 0 0 2 -1 0 0 -4 1 0 0 -1z" class="white"/><path d="m 11 5 3 0 0 1 -1 0 0 4 -1 0 0 -4 -1 0z" class="white"/><path d="m 16 6 1 0 0 -1 2 0 0 1 -2 0 0 3 2 0 0 -3 1 0 0 3 -1 0 0 1 -2 0 0 -1 -1 0 z" class="white"/><path d="m 22 5 1 0 0 1 1 0 0 1 1 0 0 -1 1 0 0 -1 1 0 0 5 -1 0 0 -3 -1 0 0 1 -1 0 0 -1 -1 0 0 3 -1 0 0 -5 z" class="white"/><path d="m 51 5 2 0 0 4 1 0 0 1 -3 0 0 -1 1 0 0 -3 -1 0 z" class="white"/><path d="m 56 9 1 0 0 1 -1 0z" class="white"/><path d="m 58 6 1 0 0 -1 2 0 0 1 -2 0 0 3 2 0 0 -3 1 0 0 3 -1 0 0 1 -2 0 0 -1 -1 0 z" class="white"/></svg>